<svg xmlns="http://www.w3.org/2000/svg" xmlns:xlink="http://www.w3.org/1999/xlink" width="550" zoomAndPan="magnify" viewBox="0 0 412.5 412.499996" height="550" preserveAspectRatio="xMidYMid meet" version="1.0"><defs><clipPath id="1a3a64bc96"><path d="M 132.054688 143.628906 L 264.644531 143.628906 L 264.644531 268.730469 L 132.054688 268.730469 Z M 132.054688 143.628906 " clip-rule="nonzero"/></clipPath><clipPath id="994ff20b65"><path d="M 43.839844 143.628906 L 139.722656 143.628906 L 139.722656 268.726562 L 43.839844 268.726562 Z M 43.839844 143.628906 " clip-rule="nonzero"/></clipPath><clipPath id="8a67de7f82"><path d="M 267.460938 144 L 367.839844 144 L 367.839844 180 L 267.460938 180 Z M 267.460938 144 " clip-rule="nonzero"/></clipPath><clipPath id="5f4f2aef04"><path d="M 350.621094 179.710938 L 284.996094 179.710938 C 275.351562 179.710938 267.460938 171.699219 267.460938 161.910156 C 267.460938 152.117188 275.351562 144.109375 284.996094 144.109375 L 350.621094 144.109375 C 360.265625 144.109375 368.15625 152.117188 368.15625 161.910156 C 368.15625 171.699219 360.390625 179.710938 350.621094 179.710938 Z M 350.621094 179.710938 " clip-rule="nonzero"/></clipPath><clipPath id="a76db4305f"><path d="M 267.460938 144 L 367.839844 144 L 367.839844 268.730469 L 267.460938 268.730469 Z M 267.460938 144 " clip-rule="nonzero"/></clipPath><clipPath id="08ae73b100"><path d="M 350.621094 268.085938 L 284.996094 268.085938 C 275.351562 268.085938 267.460938 260.078125 267.460938 250.285156 L 267.460938 161.910156 C 267.460938 152.117188 275.351562 144.109375 284.996094 144.109375 C 294.640625 144.109375 302.53125 152.117188 302.53125 161.910156 L 302.53125 232.484375 L 350.621094 232.484375 C 360.265625 232.484375 368.15625 240.492188 368.15625 250.285156 C 368.15625 260.078125 360.390625 268.085938 350.621094 268.085938 Z M 350.621094 268.085938 " clip-rule="nonzero"/></clipPath><clipPath id="e89f8eeaa7"><path d="M 267.460938 188 L 367.839844 188 L 367.839844 224 L 267.460938 224 Z M 267.460938 188 " clip-rule="nonzero"/></clipPath><clipPath id="e1156bacbd"><path d="M 350.621094 223.835938 L 284.996094 223.835938 C 275.351562 223.835938 267.460938 215.824219 267.460938 206.035156 C 267.460938 196.242188 275.351562 188.230469 284.996094 188.230469 L 350.621094 188.230469 C 360.265625 188.230469 368.15625 196.242188 368.15625 206.035156 C 368.15625 215.824219 360.390625 223.835938 350.621094 223.835938 Z M 350.621094 223.835938 " clip-rule="nonzero"/></clipPath></defs><g clip-path="url(#1a3a64bc96)"><path fill="#f7000f" d="M 160.691406 149.199219 C 160.074219 151.503906 161.226562 153.476562 163.410156 153.832031 L 190.535156 158.253906 C 190.714844 158.289062 190.621094 158.558594 190.429688 158.558594 L 145.0625 158.558594 C 144.363281 158.558594 143.945312 159.550781 144.5625 159.757812 L 154.992188 163.316406 C 156.035156 163.671875 156.527344 164.730469 156.210938 165.917969 L 155.257812 169.484375 C 154.664062 171.695312 155.972656 173.496094 158.191406 173.496094 L 186.515625 173.496094 C 187.625 173.496094 188.28125 174.394531 187.984375 175.503906 L 186.324219 181.699219 C 185.6875 184.078125 186.671875 186.199219 188.757812 186.90625 L 199.191406 190.460938 C 199.492188 190.566406 199.285156 191.0625 198.9375 191.0625 L 170.699219 191.0625 C 170 191.0625 169.585938 192.050781 170.199219 192.253906 L 181.148438 195.996094 C 181.878906 196.246094 182.230469 196.984375 182.003906 197.828125 C 181.5625 199.464844 182.339844 200.882812 183.851562 201.214844 L 203.648438 205.585938 C 203.878906 205.636719 203.75 205.992188 203.5 205.992188 L 132.441406 205.992188 C 132.179688 205.992188 132.054688 206.382812 132.308594 206.402344 L 176.441406 211.132812 C 177.539062 211.257812 178.148438 212.210938 177.84375 213.351562 L 169.613281 244.0625 C 168.988281 246.390625 170.09375 248.417969 172.246094 248.890625 L 190.941406 253.015625 C 191.171875 253.0625 191.042969 253.425781 190.792969 253.425781 L 136.863281 253.425781 C 136.476562 253.425781 136.285156 253.980469 136.648438 254.042969 L 163.773438 258.464844 C 164.867188 258.644531 165.441406 259.628906 165.132812 260.78125 L 164.179688 264.34375 C 163.585938 266.558594 164.902344 268.359375 167.117188 268.359375 L 193.351562 268.359375 C 195.5625 268.359375 197.839844 266.558594 198.433594 264.34375 L 222.238281 175.503906 C 222.535156 174.394531 223.671875 173.496094 224.78125 173.496094 L 252.933594 173.496094 C 255.148438 173.496094 257.425781 171.695312 258.019531 169.484375 L 263.867188 147.644531 C 264.464844 145.425781 263.148438 143.632812 260.9375 143.632812 L 166.191406 143.632812 C 163.976562 143.632812 161.703125 145.425781 161.105469 147.644531 L 160.691406 149.199219 " fill-opacity="1" fill-rule="nonzero"/></g><g clip-path="url(#994ff20b65)"><path fill="#f7000f" d="M 93.300781 238.386719 L 93.617188 238.609375 C 93.816406 238.757812 94.011719 238.929688 94.226562 239.105469 L 94.515625 238.75 C 94.519531 238.753906 94.519531 238.753906 94.523438 238.757812 L 94.546875 238.78125 L 94.226562 239.125 C 95.898438 240.679688 96.804688 242.832031 97.355469 245.097656 C 97.902344 247.351562 98.085938 249.699219 98.121094 252.050781 L 98.128906 252.457031 L 98.195312 252.457031 L 98.199219 252.523438 L 98.039062 252.59375 C 98.097656 252.652344 98.15625 252.707031 98.214844 252.765625 L 98.394531 256.121094 C 98.507812 257.46875 98.652344 258.832031 98.960938 260.171875 C 99.261719 261.507812 99.671875 262.8125 100.167969 264.082031 C 100.433594 264.710938 100.6875 265.339844 100.960938 265.964844 L 101.394531 266.886719 L 101.925781 267.980469 C 108.164062 267.957031 114.402344 267.933594 120.640625 267.910156 C 123.722656 267.910156 126.804688 267.914062 129.886719 267.917969 C 133.167969 267.925781 136.449219 267.9375 139.726562 267.945312 C 139.28125 267.199219 138.832031 266.453125 138.386719 265.707031 C 138.046875 265.132812 137.703125 264.574219 137.398438 263.992188 C 136.734375 262.742188 136.1875 261.425781 135.808594 260.070312 C 135.617188 259.386719 135.464844 258.707031 135.363281 258.003906 C 135.253906 257.300781 135.175781 256.59375 135.113281 255.882812 C 134.867188 253.027344 134.835938 250.15625 134.863281 247.273438 L 134.867188 246.785156 L 134.554688 246.78125 C 134.222656 243.046875 133.519531 239.316406 132.226562 235.765625 C 131.554688 233.917969 130.71875 232.125 129.679688 230.445312 C 129.164062 229.609375 128.59375 228.792969 127.957031 228.03125 C 127.328125 227.269531 126.648438 226.550781 125.921875 225.886719 C 124.523438 224.597656 122.996094 223.496094 121.382812 222.597656 C 120.578125 222.148438 119.761719 221.746094 118.929688 221.375 C 118.679688 221.265625 118.597656 221.238281 118.457031 221.179688 L 118.0625 221.023438 C 117.800781 220.921875 117.535156 220.824219 117.257812 220.738281 C 117.125 220.71875 117.261719 220.683594 117.3125 220.65625 L 117.5 220.566406 C 117.628906 220.507812 117.757812 220.441406 117.886719 220.378906 L 118.277344 220.179688 L 118.726562 219.929688 C 119.535156 219.5 120.324219 219.011719 121.09375 218.503906 C 122.625 217.476562 124.066406 216.328125 125.34375 215.019531 L 125.828125 214.53125 C 125.984375 214.367188 126.15625 214.210938 126.296875 214.035156 L 127.1875 212.992188 C 127.769531 212.296875 128.308594 211.554688 128.808594 210.796875 C 129.308594 210.03125 129.765625 209.246094 130.191406 208.441406 C 130.617188 207.632812 130.988281 206.800781 131.335938 205.957031 C 131.679688 205.109375 131.992188 204.246094 132.246094 203.367188 C 132.371094 202.925781 132.519531 202.492188 132.632812 202.046875 C 132.738281 201.597656 132.847656 201.152344 132.953125 200.703125 C 133.164062 199.804688 133.320312 198.890625 133.457031 197.972656 C 133.605469 197.054688 133.699219 196.125 133.78125 195.191406 C 133.941406 193.324219 133.976562 191.429688 133.964844 189.511719 C 133.972656 187.59375 133.980469 185.652344 133.992188 183.675781 C 134.019531 181.222656 134.050781 178.769531 133.851562 176.3125 C 133.640625 173.859375 133.25 171.421875 132.617188 169.03125 C 131.984375 166.644531 131.101562 164.3125 129.925781 162.121094 C 128.75 159.925781 127.289062 157.878906 125.574219 156.054688 C 123.859375 154.226562 121.902344 152.625 119.777344 151.28125 C 117.660156 149.929688 115.378906 148.820312 113.03125 147.925781 C 110.675781 147.023438 108.273438 146.296875 105.796875 145.722656 C 103.335938 145.164062 100.847656 144.726562 98.316406 144.417969 C 93.992188 143.898438 89.574219 143.683594 85.136719 143.6875 C 80.71875 143.730469 76.261719 143.773438 71.804688 143.816406 C 67.347656 143.855469 62.886719 143.894531 58.445312 143.929688 C 56.226562 143.945312 54.015625 143.957031 51.808594 143.96875 C 49.429688 143.976562 47.0625 143.980469 44.710938 143.988281 C 44.703125 146.15625 44.699219 148.269531 44.691406 150.371094 C 44.675781 154.507812 44.554688 158.914062 44.445312 163.289062 C 44.339844 167.664062 44.191406 172.003906 44.15625 176.03125 C 44.121094 179.875 44.085938 183.730469 44.050781 187.589844 C 44.027344 191.449219 44.003906 195.3125 43.980469 199.175781 C 43.921875 206.898438 43.851562 214.621094 43.839844 222.320312 C 43.84375 226.234375 43.84375 230.105469 43.847656 233.945312 C 43.859375 237.785156 43.902344 241.59375 43.941406 245.378906 C 43.980469 249.164062 44.03125 252.929688 44.101562 256.6875 C 44.171875 260.683594 44.246094 264.671875 44.316406 268.664062 L 46.828125 268.617188 L 48.628906 268.574219 C 49.828125 268.546875 51.027344 268.515625 52.230469 268.488281 C 54.632812 268.429688 57.042969 268.367188 59.460938 268.308594 C 61.25 268.265625 63.050781 268.21875 64.867188 268.175781 C 66.789062 268.132812 68.71875 268.09375 70.664062 268.050781 C 70.628906 266.082031 70.589844 264.109375 70.550781 262.125 C 70.523438 260.246094 70.492188 258.359375 70.464844 256.472656 C 70.417969 252.699219 70.378906 248.914062 70.394531 245.148438 C 70.402344 243.417969 70.410156 241.699219 70.429688 239.992188 C 70.4375 239.136719 70.449219 238.285156 70.457031 237.433594 C 70.46875 236.691406 70.480469 235.957031 70.488281 235.21875 C 72.453125 235.253906 74.410156 235.285156 76.371094 235.320312 C 78.441406 235.367188 80.519531 235.359375 82.574219 235.496094 C 84.628906 235.640625 86.695312 235.90625 88.699219 236.421875 C 89.699219 236.683594 90.671875 237.015625 91.628906 237.449219 C 92.078125 237.667969 92.527344 237.890625 92.984375 238.179688 C 93.09375 238.246094 93.199219 238.316406 93.300781 238.386719 Z M 92.039062 205.375 C 91.382812 206.207031 90.457031 206.835938 89.457031 207.328125 C 88.453125 207.816406 87.375 208.175781 86.273438 208.445312 C 85.171875 208.710938 84.042969 208.886719 82.910156 208.972656 C 82.34375 209.015625 81.773438 209.050781 81.214844 209.039062 C 80.652344 209.03125 80.082031 208.992188 79.515625 208.949219 C 78.875 208.894531 78.222656 208.824219 77.566406 208.785156 C 76.914062 208.757812 76.265625 208.730469 75.613281 208.703125 C 74.324219 208.65625 73.039062 208.640625 71.742188 208.660156 C 71.261719 208.671875 70.785156 208.6875 70.320312 208.710938 L 70.3125 208.605469 C 70.296875 208.421875 70.285156 208.242188 70.269531 208.0625 C 70.242188 207.699219 70.210938 207.34375 70.179688 206.984375 C 70.121094 206.269531 70.0625 205.5625 70 204.847656 C 69.890625 203.421875 69.8125 201.972656 69.84375 200.417969 C 69.890625 198.539062 69.972656 196.664062 70.046875 194.789062 C 70.121094 192.910156 70.195312 191.046875 70.21875 189.136719 C 70.226562 188.199219 70.238281 187.234375 70.230469 186.253906 C 70.230469 185.765625 70.222656 185.273438 70.207031 184.78125 L 70.195312 184.410156 L 70.183594 184.234375 L 70.152344 183.878906 C 70.25 183.867188 70.359375 183.863281 70.46875 183.855469 L 70.640625 183.84375 L 70.945312 183.832031 C 71.40625 183.820312 71.863281 183.804688 72.316406 183.792969 C 73.226562 183.773438 74.132812 183.769531 75.019531 183.785156 C 76.597656 183.804688 78.375 184.21875 79.902344 184.171875 C 81.367188 184.132812 82.789062 184.191406 84.199219 184.390625 C 84.898438 184.488281 85.59375 184.617188 86.28125 184.773438 C 86.625 184.851562 86.96875 184.933594 87.296875 185.019531 C 87.628906 185.113281 87.964844 185.207031 88.289062 185.3125 C 88.726562 185.449219 89.152344 185.601562 89.558594 185.769531 C 89.96875 185.941406 90.359375 186.121094 90.710938 186.332031 C 90.894531 186.441406 91.070312 186.550781 91.238281 186.667969 C 91.320312 186.726562 91.40625 186.789062 91.46875 186.839844 C 91.546875 186.902344 91.625 186.96875 91.703125 187.039062 C 91.855469 187.175781 92 187.316406 92.140625 187.46875 C 92.21875 187.554688 92.257812 187.59375 92.328125 187.683594 C 92.394531 187.765625 92.457031 187.847656 92.519531 187.933594 C 93.496094 189.277344 93.941406 191.019531 94.035156 192.914062 C 94.078125 193.425781 94.117188 193.945312 94.152344 194.472656 C 94.1875 195 94.183594 195.535156 94.1875 196.074219 C 94.191406 197.144531 94.160156 198.226562 94.070312 199.296875 C 93.945312 201.582031 93.332031 203.640625 92.054688 205.371094 L 92.402344 205.667969 C 92.402344 205.671875 92.402344 205.671875 92.402344 205.671875 C 92.398438 205.671875 92.398438 205.675781 92.398438 205.675781 Z M 92.039062 205.375 " fill-opacity="1" fill-rule="nonzero"/></g><g clip-path="url(#8a67de7f82)"><g clip-path="url(#5f4f2aef04)"><path fill="#f7000f" d="M 267.460938 144.109375 L 267.460938 179.710938 L 367.839844 179.710938 L 367.839844 144.109375 Z M 267.460938 144.109375 " fill-opacity="1" fill-rule="nonzero"/></g></g><g clip-path="url(#a76db4305f)"><g clip-path="url(#08ae73b100)"><path fill="#f7000f" d="M 267.460938 144.109375 L 267.460938 268.085938 L 367.839844 268.085938 L 367.839844 144.109375 Z M 267.460938 144.109375 " fill-opacity="1" fill-rule="nonzero"/></g></g><g clip-path="url(#e89f8eeaa7)"><g clip-path="url(#e1156bacbd)"><path fill="#f7000f" d="M 267.460938 188.230469 L 267.460938 223.835938 L 367.839844 223.835938 L 367.839844 188.230469 Z M 267.460938 188.230469 " fill-opacity="1" fill-rule="nonzero"/></g></g></svg>
