<svg xmlns="http://www.w3.org/2000/svg" xmlns:xlink="http://www.w3.org/1999/xlink" width="500" zoomAndPan="magnify" viewBox="0 0 375 374.999991" height="500" preserveAspectRatio="xMidYMid meet" version="1.0"><defs><clipPath id="dd0f67549c"><path d="M 99.582031 116.8125 L 249.582031 116.8125 L 249.582031 258.5625 L 99.582031 258.5625 Z M 99.582031 116.8125 " clip-rule="nonzero"/></clipPath><clipPath id="6023c7ee12"><path d="M 223.75 191 L 275.5 191 L 275.5 258.472656 L 223.75 258.472656 Z M 223.75 191 " clip-rule="nonzero"/></clipPath></defs><g clip-path="url(#dd0f67549c)"><path fill="#ff3131" d="M 132.023438 123.148438 C 131.324219 125.765625 132.628906 128 135.105469 128.402344 L 165.835938 133.410156 C 166.039062 133.449219 165.929688 133.757812 165.714844 133.757812 L 114.320312 133.757812 C 113.527344 133.757812 113.054688 134.878906 113.75 135.113281 L 125.566406 139.144531 C 126.746094 139.546875 127.308594 140.75 126.945312 142.09375 L 125.867188 146.132812 C 125.195312 148.640625 126.679688 150.675781 129.191406 150.675781 L 161.28125 150.675781 C 162.539062 150.675781 163.28125 151.695312 162.945312 152.949219 L 161.0625 159.96875 C 160.339844 162.667969 161.460938 165.066406 163.820312 165.871094 L 175.640625 169.898438 C 175.984375 170.019531 175.75 170.582031 175.351562 170.582031 L 143.363281 170.582031 C 142.570312 170.582031 142.097656 171.699219 142.792969 171.929688 L 155.199219 176.167969 C 156.027344 176.449219 156.425781 177.289062 156.167969 178.242188 C 155.671875 180.097656 156.546875 181.703125 158.265625 182.082031 L 180.691406 187.03125 C 180.953125 187.089844 180.804688 187.496094 180.523438 187.496094 L 100.019531 187.496094 C 99.722656 187.496094 99.582031 187.933594 99.871094 187.960938 L 149.867188 193.320312 C 151.113281 193.460938 151.800781 194.539062 151.453125 195.832031 L 142.132812 230.625 C 141.425781 233.261719 142.675781 235.554688 145.113281 236.09375 L 166.292969 240.765625 C 166.554688 240.820312 166.410156 241.230469 166.125 241.230469 L 105.027344 241.230469 C 104.59375 241.230469 104.375 241.859375 104.785156 241.929688 L 135.515625 246.941406 C 136.753906 247.144531 137.40625 248.261719 137.054688 249.566406 L 135.976562 253.597656 C 135.304688 256.113281 136.792969 258.148438 139.300781 258.148438 L 169.023438 258.148438 C 171.53125 258.148438 174.109375 256.113281 174.785156 253.597656 L 201.75 152.949219 C 202.089844 151.695312 203.375 150.675781 204.632812 150.675781 L 236.527344 150.675781 C 239.035156 150.675781 241.613281 148.640625 242.285156 146.132812 L 248.914062 121.390625 C 249.589844 118.878906 248.097656 116.847656 245.59375 116.847656 L 138.257812 116.847656 C 135.746094 116.847656 133.167969 118.878906 132.492188 121.390625 L 132.023438 123.148438 " fill-opacity="1" fill-rule="nonzero"/></g><g clip-path="url(#6023c7ee12)"><path fill="#f7000f" d="M 250.445312 242.097656 L 250.617188 242.21875 C 250.722656 242.296875 250.828125 242.390625 250.945312 242.488281 L 251.101562 242.296875 C 251.101562 242.296875 251.101562 242.296875 251.105469 242.296875 L 251.117188 242.3125 L 250.945312 242.496094 C 251.84375 243.335938 252.335938 244.496094 252.632812 245.71875 C 252.929688 246.933594 253.027344 248.203125 253.046875 249.46875 L 253.050781 249.691406 L 253.085938 249.6875 L 253.089844 249.726562 L 253.003906 249.765625 C 253.035156 249.792969 253.066406 249.824219 253.097656 249.855469 L 253.195312 251.664062 C 253.253906 252.394531 253.332031 253.128906 253.5 253.851562 C 253.660156 254.570312 253.882812 255.277344 254.152344 255.960938 C 254.292969 256.300781 254.433594 256.640625 254.578125 256.976562 L 254.8125 257.472656 L 255.097656 258.0625 C 258.464844 258.050781 261.835938 258.039062 265.199219 258.027344 C 266.863281 258.027344 268.527344 258.027344 270.191406 258.03125 C 271.960938 258.035156 273.730469 258.039062 275.5 258.046875 C 275.261719 257.644531 275.019531 257.242188 274.777344 256.839844 C 274.59375 256.527344 274.410156 256.226562 274.246094 255.914062 C 273.886719 255.238281 273.59375 254.527344 273.386719 253.796875 C 273.285156 253.429688 273.199219 253.0625 273.144531 252.683594 C 273.089844 252.304688 273.046875 251.921875 273.011719 251.539062 C 272.878906 249.996094 272.863281 248.449219 272.875 246.894531 L 272.878906 246.628906 L 272.710938 246.628906 C 272.53125 244.613281 272.152344 242.597656 271.453125 240.683594 C 271.089844 239.6875 270.640625 238.71875 270.078125 237.8125 C 269.800781 237.363281 269.492188 236.921875 269.148438 236.511719 C 268.808594 236.101562 268.441406 235.714844 268.050781 235.351562 C 267.296875 234.660156 266.46875 234.066406 265.601562 233.582031 C 265.164062 233.335938 264.726562 233.121094 264.277344 232.921875 C 264.140625 232.859375 264.097656 232.847656 264.023438 232.816406 L 263.808594 232.730469 C 263.667969 232.675781 263.523438 232.625 263.375 232.578125 C 263.304688 232.566406 263.378906 232.546875 263.402344 232.53125 L 263.507812 232.484375 C 263.574219 232.453125 263.644531 232.417969 263.714844 232.382812 L 263.925781 232.273438 L 264.167969 232.140625 C 264.605469 231.90625 265.03125 231.644531 265.445312 231.371094 C 266.269531 230.816406 267.050781 230.195312 267.738281 229.492188 L 268 229.226562 C 268.085938 229.140625 268.175781 229.054688 268.253906 228.960938 L 268.734375 228.398438 C 269.046875 228.023438 269.339844 227.621094 269.609375 227.210938 C 269.878906 226.800781 270.125 226.375 270.355469 225.941406 C 270.582031 225.503906 270.785156 225.054688 270.972656 224.601562 C 271.160156 224.144531 271.328125 223.679688 271.464844 223.203125 C 271.53125 222.96875 271.609375 222.730469 271.671875 222.492188 C 271.730469 222.25 271.789062 222.007812 271.847656 221.765625 C 271.960938 221.28125 272.042969 220.789062 272.117188 220.292969 C 272.195312 219.800781 272.246094 219.296875 272.292969 218.792969 C 272.378906 217.785156 272.398438 216.761719 272.390625 215.730469 C 272.394531 214.695312 272.402344 213.644531 272.40625 212.582031 C 272.421875 211.257812 272.4375 209.933594 272.328125 208.605469 C 272.214844 207.285156 272.003906 205.96875 271.664062 204.679688 C 271.324219 203.390625 270.84375 202.132812 270.210938 200.953125 C 269.578125 199.769531 268.789062 198.664062 267.863281 197.679688 C 266.9375 196.691406 265.882812 195.828125 264.734375 195.101562 C 263.589844 194.375 262.359375 193.777344 261.09375 193.292969 C 259.824219 192.808594 258.523438 192.414062 257.191406 192.105469 C 255.859375 191.804688 254.515625 191.566406 253.152344 191.402344 C 250.816406 191.121094 248.433594 191.003906 246.039062 191.007812 C 243.652344 191.03125 241.25 191.054688 238.84375 191.078125 C 236.4375 191.097656 234.027344 191.117188 231.632812 191.136719 C 230.433594 191.144531 229.242188 191.152344 228.050781 191.15625 C 226.765625 191.160156 225.488281 191.164062 224.21875 191.167969 C 224.214844 192.339844 224.210938 193.480469 224.210938 194.613281 C 224.203125 196.84375 224.132812 199.222656 224.078125 201.582031 C 224.019531 203.941406 223.9375 206.285156 223.921875 208.457031 C 223.902344 210.53125 223.882812 212.609375 223.863281 214.691406 C 223.851562 216.773438 223.835938 218.859375 223.824219 220.941406 C 223.792969 225.109375 223.757812 229.277344 223.75 233.429688 C 223.75 235.542969 223.753906 237.628906 223.753906 239.703125 C 223.757812 241.773438 223.785156 243.828125 223.804688 245.871094 C 223.828125 247.914062 223.851562 249.945312 223.890625 251.972656 C 223.929688 254.128906 223.96875 256.28125 224.007812 258.433594 L 225.363281 258.410156 L 226.332031 258.386719 C 226.980469 258.371094 227.628906 258.355469 228.277344 258.339844 C 229.574219 258.304688 230.875 258.273438 232.179688 258.242188 C 233.144531 258.21875 234.117188 258.195312 235.097656 258.167969 C 236.132812 258.148438 237.179688 258.125 238.226562 258.101562 C 238.207031 257.042969 238.1875 255.976562 238.164062 254.90625 C 238.148438 253.890625 238.136719 252.875 238.121094 251.855469 C 238.09375 249.820312 238.074219 247.777344 238.082031 245.746094 C 238.085938 244.8125 238.089844 243.886719 238.101562 242.964844 C 238.105469 242.503906 238.109375 242.042969 238.117188 241.582031 C 238.121094 241.183594 238.128906 240.785156 238.132812 240.386719 C 239.191406 240.40625 240.25 240.425781 241.304688 240.445312 C 242.425781 240.46875 243.546875 240.464844 244.65625 240.539062 C 245.765625 240.617188 246.878906 240.757812 247.960938 241.039062 C 248.5 241.179688 249.027344 241.359375 249.542969 241.59375 C 249.785156 241.710938 250.027344 241.828125 250.273438 241.988281 C 250.332031 242.023438 250.390625 242.058594 250.445312 242.097656 Z M 249.761719 224.289062 C 249.410156 224.734375 248.910156 225.074219 248.371094 225.339844 C 247.828125 225.605469 247.246094 225.800781 246.652344 225.945312 C 246.058594 226.089844 245.449219 226.179688 244.835938 226.230469 C 244.53125 226.253906 244.222656 226.269531 243.921875 226.265625 C 243.617188 226.261719 243.308594 226.238281 243.003906 226.214844 C 242.660156 226.1875 242.308594 226.148438 241.953125 226.128906 C 241.601562 226.113281 241.25 226.097656 240.898438 226.085938 C 240.203125 226.058594 239.507812 226.046875 238.808594 226.058594 C 238.546875 226.066406 238.292969 226.074219 238.039062 226.089844 L 238.035156 226.03125 C 238.027344 225.933594 238.023438 225.835938 238.015625 225.738281 C 238 225.542969 237.984375 225.347656 237.964844 225.15625 C 237.933594 224.769531 237.902344 224.386719 237.867188 224.003906 C 237.808594 223.234375 237.765625 222.453125 237.785156 221.613281 C 237.808594 220.601562 237.855469 219.585938 237.894531 218.578125 C 237.933594 217.5625 237.972656 216.554688 237.984375 215.527344 C 237.992188 215.019531 237.996094 214.5 237.992188 213.972656 C 237.992188 213.707031 237.988281 213.441406 237.980469 213.175781 L 237.972656 212.976562 L 237.96875 212.882812 L 237.949219 212.691406 C 238.003906 212.683594 238.0625 212.679688 238.121094 212.675781 L 238.214844 212.671875 L 238.378906 212.664062 C 238.625 212.65625 238.875 212.652344 239.117188 212.644531 C 239.609375 212.632812 240.097656 212.628906 240.578125 212.640625 C 241.429688 212.652344 242.386719 212.871094 243.214844 212.847656 C 244.003906 212.828125 244.773438 212.859375 245.53125 212.96875 C 245.910156 213.019531 246.285156 213.089844 246.65625 213.171875 C 246.839844 213.214844 247.027344 213.257812 247.203125 213.304688 C 247.382812 213.355469 247.5625 213.40625 247.738281 213.464844 C 247.976562 213.539062 248.207031 213.617188 248.425781 213.710938 C 248.644531 213.804688 248.855469 213.902344 249.046875 214.011719 C 249.144531 214.070312 249.242188 214.132812 249.332031 214.195312 C 249.375 214.226562 249.421875 214.261719 249.457031 214.289062 C 249.496094 214.320312 249.539062 214.359375 249.582031 214.394531 C 249.664062 214.46875 249.742188 214.546875 249.816406 214.628906 C 249.859375 214.671875 249.882812 214.695312 249.917969 214.742188 C 249.953125 214.789062 249.988281 214.832031 250.023438 214.878906 C 250.550781 215.605469 250.789062 216.542969 250.839844 217.566406 C 250.863281 217.839844 250.886719 218.121094 250.902344 218.40625 C 250.921875 218.691406 250.921875 218.980469 250.921875 219.269531 C 250.925781 219.847656 250.90625 220.429688 250.859375 221.007812 C 250.792969 222.242188 250.460938 223.351562 249.773438 224.285156 L 249.960938 224.445312 C 249.960938 224.445312 249.960938 224.445312 249.960938 224.449219 C 249.957031 224.449219 249.957031 224.449219 249.957031 224.449219 Z M 249.761719 224.289062 " fill-opacity="1" fill-rule="nonzero"/></g></svg>